<svg width="34" height="34" viewBox="0 0 34 34" fill="none" xmlns="http://www.w3.org/2000/svg">
<g clip-path="url(#clip0_153_267)">
<path d="M6.07 18.3566V16.3543C12.7536 15.5413 19.4937 15.1476 26.24 15.1761C26.24 15.7076 26.24 16.248 26.18 16.7885C28.0976 16.0345 30.1128 15.493 32.18 15.1761C30.8625 12.1568 28.4618 9.6046 25.3471 7.91216C22.2324 6.21972 18.5764 5.48074 14.9414 5.80892C11.3064 6.1371 7.89379 7.51425 5.22852 9.72852C2.56325 11.9428 0.792969 14.8715 0.190001 18.0642L6.07 18.3566Z" fill="#FDC305"/>
<path d="M27.24 21.4662C26.08 22.6002 25.85 22.5293 25.85 24.5227C25.85 25.3289 25.85 28.8637 25.85 32.6555C28.1425 31.3142 30.0245 29.4909 31.328 27.3483C32.6315 25.2057 33.3158 22.8105 33.32 20.3765C33.3068 19.4544 33.1997 18.5352 33 17.6301C30.9282 18.7193 28.9967 20.0057 27.24 21.4662Z" fill="#FDC305"/>
<path d="M6.36 22.7862C6.36 22.7862 2.57 21.5105 1.17 21.165C0.787067 21.058 0.396097 20.9751 0 20.9169C0.108395 23.4737 0.965588 25.9615 2.48739 28.1361C4.00919 30.3106 6.14326 32.0971 8.68 33.32L6.36 22.7862Z" fill="#FDC305"/>
<path d="M26.29 15.167C26.3307 10.2754 25.862 5.39097 24.89 0.575666C24.89 0.575666 24.75 -0.56719 24 0.363041C23.4109 1.46881 23.0067 2.64467 22.8 3.85362C18.5418 3.61067 14.2675 3.71149 10.03 4.15484C9.24 1.77168 7.85 0.664259 7.18 0.885743C6.51 1.10723 6.46 3.81819 6.46 3.81819L6.13 16.3099C12.8113 15.509 19.548 15.1271 26.29 15.167Z" fill="#F06351"/>
<path d="M12.41 12.4031C12.41 12.3233 13.41 13.0055 13.82 13.2181C14.23 13.4308 14.43 13.5902 14.43 13.7408C14.43 13.8915 14.16 14.0421 13.8 14.0421C13.44 14.0421 12.89 13.9358 12.8 13.8029H13.74H14.03C13.4207 13.4036 12.8757 12.9327 12.41 12.4031Z" fill="black"/>
<path d="M19.89 12.5005L18.8 13.6788C18.8 13.732 18.63 13.9889 18.98 13.9446C19.3942 13.8899 19.8023 13.804 20.2 13.6877C20.31 13.6877 20.27 13.5194 20.09 13.5371C19.91 13.5548 19.4 13.5814 19.09 13.6345L19.93 12.5183C19.93 12.5183 20 12.4031 19.89 12.5005Z" fill="black"/>
<path d="M16.75 17.8959C17.2135 17.715 17.5967 17.4035 17.84 17.0099C18.12 16.4341 17.84 16.2037 17.4 16.124C16.7979 16.0267 16.1765 16.1343 15.66 16.4252C15.27 16.7442 15.32 17.0631 15.61 17.3112C15.9613 17.547 16.3442 17.7434 16.75 17.8959Z" fill="black"/>
<path d="M16.35 19.0033C16.2379 19.2057 16.0816 19.3864 15.89 19.5349C15.6052 19.7379 15.2551 19.8557 14.89 19.8715C14.3638 19.9087 13.8406 19.7731 13.42 19.4906C13.2222 19.3849 13.0436 19.2535 12.89 19.1008C12.7895 19.0025 12.6669 18.924 12.53 18.8704C12.53 18.8704 13.28 22.5027 15.1 23.0786C16.92 23.6545 17.24 22.4141 17.3 22.0775C17.3601 21.0721 17.0742 20.0742 16.48 19.2159C16.46 18.9413 16.45 19.1185 16.35 19.0033Z" fill="#F06351"/>
<path d="M14.71 20.0133C14.2453 19.9554 13.7989 19.814 13.3982 19.5977C12.9975 19.3813 12.651 19.0946 12.38 18.7552C12.3667 18.7437 12.3561 18.7299 12.3489 18.7147C12.3417 18.6995 12.338 18.6831 12.338 18.6666C12.338 18.6501 12.3417 18.6338 12.3489 18.6186C12.3561 18.6034 12.3667 18.5896 12.38 18.578C12.393 18.5663 12.4086 18.5569 12.4258 18.5505C12.4429 18.5441 12.4614 18.5408 12.48 18.5408C12.4986 18.5408 12.5171 18.5441 12.5342 18.5505C12.5514 18.5569 12.567 18.5663 12.58 18.578C13.0848 19.1931 13.843 19.6069 14.69 19.7298C15.0217 19.7077 15.3426 19.6157 15.6261 19.4616C15.9096 19.3076 16.1475 19.0958 16.32 18.8438L16.46 18.6755L16.56 18.8615C16.56 18.8615 16.93 19.5349 17.56 19.5703C18.19 19.6057 18.61 19.2071 19.17 18.4363C19.183 18.4245 19.1986 18.4151 19.2158 18.4088C19.2329 18.4024 19.2514 18.3991 19.27 18.3991C19.2886 18.3991 19.3071 18.4024 19.3242 18.4088C19.3414 18.4151 19.357 18.4245 19.37 18.4363C19.4023 18.4546 19.4255 18.4831 19.4348 18.5161C19.4441 18.549 19.4388 18.5839 19.42 18.6135C18.78 19.4994 18.15 19.8892 17.54 19.8538C17.308 19.8239 17.0867 19.7478 16.8927 19.6312C16.6987 19.5145 16.5371 19.3604 16.42 19.1805C16.2233 19.4237 15.9676 19.6247 15.6717 19.7688C15.3758 19.9129 15.0471 19.9964 14.71 20.0133Z" fill="black"/>
<path d="M26.24 16.7619C24.4445 18.2003 22.7512 19.736 21.17 21.3599C19.5986 22.9777 17.8238 24.4312 15.88 25.6921C15.66 25.2226 14.26 24.3543 14.26 24.3543C14.26 24.3543 11.13 22.4584 9.08 20.9701C7.97414 20.1438 6.9287 19.2561 5.95 18.3123L3.95 18.2148C6.84018 21.9407 11.0702 24.6888 15.95 26.011C16.81 25.887 19.22 24.3632 21.02 23.1229C23.1389 21.5121 25.124 19.7682 26.96 17.9047C27.4625 17.3829 27.8493 16.7818 28.1 16.1329C27 16.4784 26.24 16.7619 26.24 16.7619Z" fill="#F06351"/>
</g>
<defs>
<clipPath id="clip0_153_267">
<rect width="33.32" height="33.32" fill="white"/>
</clipPath>
</defs>
</svg>
