<svg xmlns="http://www.w3.org/2000/svg" xmlns:xlink="http://www.w3.org/1999/xlink"><defs>
<clipPath id="clip0_2403_774">
<rect width="268" height="112" fill="white" transform="translate(0 44)"/>
</clipPath>

<clipPath id="clip0_2403_2166">
<rect width="27" height="34" fill="white"/>
</clipPath>

<clipPath id="clip0_95_18">
<rect width="30" height="32" fill="white" transform="translate(15.5 14)"/>
</clipPath>

    <clipPath id="a">
      <path fill="#fff" transform="translate(15.5 13)" d="M0 0h29v31H0z"/>
    </clipPath>
  
<clipPath id="clip0_135_3354">
<rect width="101" height="18" fill="white"/>
</clipPath>

<clipPath id="clip0_153_253">
<rect width="20" height="20.0688" fill="white" transform="translate(0 0.320435)"/>
</clipPath>

<clipPath id="clip0_2403_755">
<rect width="140" height="194" fill="white" transform="translate(30)"/>
</clipPath>
</defs><symbol id="1" viewBox="0 0 71 227"><g fill="none">
<path d="M40.3722 227V39.4C40.1855 39.5867 38.0389 40.1467 33.9322 41.08C30.0122 42.0133 25.5322 42.9467 20.4922 43.88C15.4522 44.8133 10.9722 45.6533 7.05219 46.4C3.13219 47.1467 1.07885 47.52 0.892188 47.52V24.84C4.06552 24.0933 7.70552 23.0667 11.8122 21.76C16.1055 20.4533 20.3989 18.8667 24.6922 17C29.1722 15.1333 33.3722 12.8 37.2922 9.99999C41.3989 7.19999 44.8522 3.93332 47.6522 0.199983H70.3322V227H40.3722Z" fill="#F2F2F2"/>
</g></symbol><symbol id="2" viewBox="0 0 113 229"><g fill="none">
<path d="M0.624532 229V207.72L58.3045 117.84C62.5979 111.12 66.5179 104.867 70.0645 99.08C73.7979 93.2933 76.7845 87.2267 79.0245 80.88C81.4512 74.3467 82.6645 66.88 82.6645 58.48C82.6645 48.0267 80.9845 39.8133 77.6245 33.84C74.2645 27.8667 68.3845 24.88 59.9845 24.88C52.8912 24.88 47.3845 26.84 43.4645 30.76C39.5445 34.68 36.8379 39.8133 35.3445 46.16C33.8512 52.5067 33.1045 59.32 33.1045 66.6V74.16H3.14453V66.32C3.14453 52.6933 4.91787 41.0267 8.46453 31.32C12.1979 21.4267 18.0779 13.7733 26.1045 8.35999C34.3179 2.94666 45.1445 0.239991 58.5845 0.239991C76.8779 0.239991 90.5045 5.46666 99.4645 15.92C108.425 26.1867 112.905 40.4667 112.905 58.76C112.905 68.4667 111.691 76.96 109.265 84.24C107.025 91.52 104.038 98.3333 100.305 104.68C96.5712 111.027 92.4645 117.56 87.9845 124.28L35.9045 203.8H107.585V229H0.624532Z" fill="#F2F2F2"/>
</g></symbol><symbol id="3" viewBox="0 0 112 232"><g fill="none">
<path d="M55.9213 231.52C43.6013 231.52 33.3346 229.187 25.1213 224.52C16.9079 219.853 10.7479 213.133 6.64125 204.36C2.53458 195.587 0.481251 185.227 0.481251 173.28V165.72H30.1613C30.1613 166.467 30.1613 167.307 30.1613 168.24C30.1613 168.987 30.1613 169.827 30.1613 170.76C30.3479 177.48 31.0946 183.547 32.4013 188.96C33.8946 194.373 36.4146 198.667 39.9613 201.84C43.6946 205.013 49.0146 206.6 55.9213 206.6C63.2013 206.6 68.7079 204.92 72.4413 201.56C76.1746 198.013 78.6946 193.067 80.0013 186.72C81.3079 180.373 81.9613 173.093 81.9613 164.88C81.9613 152.933 79.7213 143.227 75.2413 135.76C70.9479 128.107 63.2946 123.907 52.2813 123.16C51.7213 122.973 50.9746 122.88 50.0413 122.88C49.2946 122.88 48.6413 122.88 48.0813 122.88V92.92C48.6413 92.92 49.2946 92.92 50.0413 92.92C50.7879 92.92 51.4413 92.92 52.0013 92.92C62.6413 92.5467 70.2946 89.7467 74.9613 84.52C79.6279 79.2933 81.9613 70.6133 81.9613 58.48C81.9613 48.2133 80.1879 40 76.6413 33.84C73.2813 27.68 66.4679 24.6 56.2013 24.6C45.9346 24.6 39.1213 28.0533 35.7613 34.96C32.4013 41.68 30.5346 50.36 30.1613 61C30.1613 61.7467 30.1613 62.5867 30.1613 63.52C30.1613 64.2667 30.1613 65.0133 30.1613 65.76H0.481251V58.2C0.481251 46.0667 2.53458 35.7067 6.64125 27.12C10.7479 18.5333 16.9079 11.9067 25.1213 7.23998C33.5213 2.57332 43.8813 0.239991 56.2013 0.239991C68.7079 0.239991 79.0679 2.57332 87.2813 7.23998C95.4946 11.9067 101.655 18.6267 105.761 27.4C109.868 35.9867 111.921 46.3467 111.921 58.48C111.921 72.1067 108.935 83.0267 102.961 91.24C97.1746 99.4533 89.3346 105.053 79.4413 108.04C86.3479 110.093 92.1346 113.64 96.8013 118.68C101.655 123.72 105.388 130.16 108.001 138C110.615 145.653 111.921 154.613 111.921 164.88C111.921 178.32 110.055 190.08 106.321 200.16C102.588 210.053 96.6146 217.8 88.4013 223.4C80.1879 228.813 69.3613 231.52 55.9213 231.52Z" fill="#F2F2F2"/>
</g></symbol><symbol id="arrow-hover" viewBox="0 0 32 12"><g fill="none">
<line y1="6" x2="26" y2="6" stroke="black" stroke-width="2"/>
<path d="M32 6L25.25 11.1962L25.25 0.803848L32 6Z" fill="black"/>
</g></symbol><symbol id="arrow" viewBox="0 0 32 12"><g fill="none">
<line y1="6" x2="18" y2="6" stroke="black" stroke-width="2"/>
<path d="M24 6L17.25 11.1962L17.25 0.803848L24 6Z" fill="black"/>
</g></symbol><symbol id="big-cat" viewBox="0 0 268 200"><g fill="none">
<circle cx="136" cy="100" r="100" fill="#68B738"/>
<g clip-path="url(#clip0_2403_774)">
<path d="M246.2 55.5999C248.509 51.9261 251.578 48.7891 255.2 46.3999C257.2 44.9999 258.4 44.9999 259.6 47.5999C261.2 51.3999 262.6 55.3999 261.4 59.5999C261.182 60.3122 261.14 61.0671 261.28 61.799C261.419 62.5309 261.735 63.2177 262.2 63.7999C263.4 65.3999 264.4 66.9999 265.4 68.3999C266.761 70.1274 267.644 72.1825 267.96 74.359C268.276 76.5354 268.014 78.7567 267.2 80.7999C266.466 82.7835 266.327 84.9384 266.8 86.9999C267.2 88.9799 267.2 91.0199 266.8 92.9999C266.638 94.4827 266.038 95.8837 265.076 97.0237C264.115 98.1637 262.835 98.991 261.4 99.3999C258.842 99.8867 256.559 101.314 255 103.4C254.811 103.707 254.546 103.961 254.231 104.136C253.916 104.311 253.561 104.402 253.2 104.4C250.8 104.8 244.8 99.3999 244.8 96.9999V95.7999C245 88.5999 244.6 87.9999 238 84.9999C236.619 84.5127 235.381 83.6877 234.4 82.5999C233.2 80.9999 231.6 81.1999 229.8 81.7999C228 82.3999 227 83.5999 227.2 85.5999C227.803 90.4416 228.004 95.325 227.8 100.2C227.813 100.756 227.95 101.303 228.2 101.8C234.4 110.8 236.8 121.4 239.8 131.6C242.2 139.4 246.6 143.6 254.6 144.2C255.88 144.302 257.151 144.503 258.4 144.8C260.044 145.064 261.57 145.815 262.783 146.956C263.995 148.097 264.837 149.575 265.2 151.2C266.6 155.4 265.8 156.4 261.6 156.4H248.6C246.917 156.485 245.267 155.911 244 154.8C241.976 153.092 239.677 151.739 237.2 150.8C234.462 149.789 232.093 147.977 230.4 145.6C228.057 142.327 225.376 139.31 222.4 136.6C216.8 130.8 210.8 125.2 205.6 119.2C201.641 115.112 199.358 109.688 199.2 104C199.2 102.2 198.8 101.4 196.8 102.2C196.201 102.58 195.509 102.787 194.8 102.8C189.2 102.8 186.4 106.2 184.4 111.2C182.6 115.4 180.2 119.4 178 123.6C176.753 126.229 176.071 129.091 176 132C176 136.8 177.2 138.4 181.6 140C184.4 141 187 142 188.4 144.8C190 148 189.6 148.8 186.2 149H172.6C171.816 149.078 171.027 148.907 170.346 148.512C169.664 148.117 169.123 147.518 168.8 146.8L165.2 140.8C164.139 139.234 163.459 137.442 163.216 135.566C162.973 133.691 163.173 131.784 163.8 130C164.666 126.527 164.734 122.903 164 119.4C163.496 116.96 163.539 114.439 164.127 112.018C164.715 109.597 165.833 107.337 167.4 105.4C168.6 104 168.6 103.4 166.6 103C158.422 101.263 150.493 98.5079 143 94.7999C142.947 94.7999 142.896 94.7788 142.859 94.7413C142.821 94.7038 142.8 94.6529 142.8 94.5999C136.4 92.1999 135.2 92.5999 133.4 99.1999C131.8 104.8 130.2 110.4 129 116.2C127.6 122.6 129.2 128.6 131.2 134.6C132 137 134.4 136.8 136.2 137.4C140.2 138.6 143.6 140.2 145.2 144.4C146.6 147.6 146.4 148 143 148C139.6 148 136.2 147.8 132.6 148C129.562 148.055 126.597 147.067 124.2 145.2C114.6 138.8 111.8 129 111 118.4C110.6 111.8 107 106.6 102.8 101.6C102 100.6 101.2 100.2 100 101C95.707 103.367 91.2249 105.374 86.6 107C76.9485 110.408 68.4793 116.517 62.2 124.6C59.8553 127.55 58.3368 131.07 57.8 134.8C57.2 138.4 58.2 140 61.8 141C65.4 142 67.2 144 67.6 147.8C67.8 149.4 67.2 150.2 65.6 150.2H49.4C48.8698 150.162 48.3566 149.997 47.9039 149.719C47.4512 149.44 47.0725 149.056 46.8 148.6C44.2877 145.489 42.9433 141.598 43 137.6C42.8951 130.69 43.4982 123.787 44.8 117C45.067 114.967 45.8259 113.03 47.0108 111.358C48.1958 109.685 49.7711 108.326 51.6 107.4C63.4 101.8 69.6 91.1999 75.2 80.1999C76.4 77.9999 75.4 77.5999 73.4 77.7999C67.8027 78.5769 62.4994 80.7809 58 84.1999C52.1084 88.4976 46.5585 93.2451 41.4 98.3999C35.8993 103.987 28.6054 107.457 20.8 108.2C6.20002 109 -0.599978 100.8 2.18973e-05 87.5999C0.134147 83.0991 1.83132 78.7854 4.80002 75.3999C5.83206 74.0619 7.23949 73.0619 8.84256 72.5275C10.4456 71.9931 12.1716 71.9487 13.8 72.3999C16.8 73.1999 17.6 74.7999 16.4 77.7999C15.8 78.9999 15 79.9999 14.4 81.1999C13.5372 82.4258 12.8631 83.7741 12.4 85.1999C10.2 91.1999 13.2 95.3999 19.4 95.9999C26 96.5999 31.4 93.7999 36.4 89.7999C42.4239 84.9764 47.8014 79.3972 52.4 73.1999C55.8385 68.6747 60.1682 64.9025 65.1217 62.1161C70.0751 59.3298 75.5472 57.5886 81.2 56.9999C85.8 56.3999 89.8 54.3999 94.2 53.1999C102.429 50.6911 110.998 49.4766 119.6 49.5999C123.584 49.7658 127.553 49.0131 131.2 47.3999C141 43.3999 151.2 43.3999 161.4 45.3999C169.4 46.9999 177.4 48.9999 185.2 50.9999C189.842 51.8648 194.615 51.7285 199.2 50.5999C207.977 48.375 216.956 47.0349 226 46.5999C231.925 46.3116 237.83 47.479 243.2 49.9999C247.2 51.7999 247.2 51.7999 246.2 55.5999Z" fill="black"/>
</g>

</g></symbol><symbol id="check-mark" viewBox="0 0 24 19"><g fill="none">
<path d="M9 15.499L1.4 6.90101L0 8.48485L9 18.6667L24 1.69697L22.6 0L9 15.499Z" fill="#68B738"/>
</g></symbol><symbol id="email" viewBox="0 0 19 14"><g fill="none">
<line x1="0.65" y1="6" x2="0.65" y2="14" stroke="#222222" stroke-width="1.3"/>
<line x1="17.65" y1="6" x2="17.65" y2="14" stroke="#222222" stroke-width="1.3"/>
<line y1="13.35" x2="18" y2="13.35" stroke="#222222" stroke-width="1.3"/>
<line y1="1.35" x2="18" y2="1.35" stroke="#222222" stroke-width="1.3"/>
<path d="M17.35 3.1821L9.00002 9.67654L0.65 3.18209V1.65H3.5L9.00002 1.65H14H17.35V3.1821Z" stroke="#222222" stroke-width="1.3"/>
</g></symbol><symbol id="facebook" viewBox="0 0 13 20"><g fill="currentColor">
<path d="M11.5 0.833252H8.75002C7.53445 0.833252 6.36866 1.30674 5.50911 2.14957C4.64957 2.99239 4.16669 4.1355 4.16669 5.32743V8.02394H1.41669V11.6193H4.16669V18.81H7.83335V11.6193H10.5834L11.5 8.02394H7.83335V5.32743C7.83335 5.08905 7.92993 4.86042 8.10184 4.69186C8.27375 4.52329 8.50691 4.4286 8.75002 4.4286H11.5V0.833252Z" stroke-width="1.1" stroke-linecap="round" stroke-linejoin="round"/>
</g></symbol><symbol id="gift" viewBox="0 0 78 80"><g fill="none">
<path d="M64.0156 34.7127H14.031C12.2766 34.7127 10.8494 33.2951 10.8494 31.5524V22.0842C10.8494 20.3415 12.2766 18.9233 14.031 18.9233H64.0149C65.7687 18.9233 67.1953 20.3415 67.1953 22.0842V31.553C67.1959 33.2951 65.7693 34.7127 64.0156 34.7127ZM14.031 21.3455C13.6276 21.3455 13.2869 21.684 13.2869 22.0842V31.553C13.2869 31.9599 13.6208 32.2912 14.031 32.2912H64.0149C64.4244 32.2912 64.7578 31.9599 64.7578 31.553V22.0842C64.7578 21.6834 64.4171 21.3455 64.0149 21.3455H14.031Z" fill="white"/>
<path d="M57.0447 67.1488H20.999C17.6218 67.1488 14.8741 64.4191 14.8741 61.0626V33.5016C14.8741 32.8331 15.4201 32.2905 16.0929 32.2905C16.7656 32.2905 17.3116 32.8331 17.3116 33.5016V61.0626C17.3116 63.0833 18.9661 64.7267 20.999 64.7267H57.0447C59.077 64.7267 60.7308 63.0833 60.7308 61.0626V33.5016C60.7308 32.8331 61.2768 32.2905 61.9496 32.2905C62.6223 32.2905 63.1683 32.8331 63.1683 33.5016V61.0626C63.1683 64.4191 60.4213 67.1488 57.0447 67.1488Z" fill="white"/>
<path d="M39.0225 67.1488C38.3498 67.1488 37.8038 66.6069 37.8038 65.9378V33.5016C37.8038 32.8331 38.3498 32.2905 39.0225 32.2905C39.6953 32.2905 40.2413 32.8331 40.2413 33.5016V65.9372C40.2413 66.6069 39.6959 67.1488 39.0225 67.1488Z" fill="white"/>
<path d="M23.8113 21.3414C19.9966 19.2874 18.5731 14.5327 20.6383 10.7415C22.7022 6.95201 27.4864 5.53687 31.303 7.58721C37.117 10.7166 40.2565 19.4472 40.3869 19.8172L38.0877 20.6208C38.0585 20.5384 35.1256 12.3994 30.1433 9.71749C27.5078 8.30175 24.2062 9.27908 22.7821 11.8944C21.3567 14.5121 22.339 17.7941 24.9734 19.2117L23.8113 21.3414Z" fill="white"/>
<path d="M54.2313 21.3413L53.071 19.2111C54.3477 18.5238 55.2782 17.3848 55.6926 16.0035C56.1063 14.6217 55.9534 13.1624 55.2617 11.895C54.5719 10.6264 53.4263 9.70233 52.0363 9.29117C50.6457 8.88001 49.1783 9.0314 47.9023 9.71747C42.9201 12.3988 39.9871 20.5378 39.9579 20.6202L37.6587 19.8166C37.7891 19.4466 40.928 10.716 46.7421 7.58719C48.5897 6.5929 50.7182 6.3737 52.7316 6.96955C54.7468 7.56479 56.4061 8.90484 57.4061 10.7414C58.4073 12.5774 58.6285 14.6913 58.0289 16.6939C57.4287 18.6958 56.0801 20.3458 54.2313 21.3413Z" fill="white"/>
<path d="M61.9496 50.9314H16.0929C15.4201 50.9314 14.8741 50.3889 14.8741 49.7204C14.8741 49.0518 15.4201 48.5093 16.0929 48.5093H61.9496C62.6223 48.5093 63.1683 49.0518 63.1683 49.7204C63.1683 50.3889 62.6229 50.9314 61.9496 50.9314Z" fill="white"/>
</g></symbol><symbol id="HTML-academy-logo" viewBox="0 0 27 34"><g fill="currentColor">
<g clip-path="url(#clip0_2403_2166)">
<path d="M13.6426 0.0157537L13.5 0L0 1.40733V26.0129L13.5 34L27 26.0129V1.40733L13.6426 0.0157537ZM25.2344 25.0151L13.5 31.9573L1.76561 25.0151V14.9293L13.4507 21.8451L13.4701 23.0984L5.45351 18.3548L5.44295 19.5801L13.4894 24.3885L13.5088 25.675L5.46408 20.9174L5.45351 22.1427L13.5 26.9511L21.6239 22.1182V20.8929V16.909L25.2432 14.7595L25.2344 25.0151ZM25.2344 13.4519L22.0147 15.3319L20.5325 16.2071L13.4666 12.0201L13.456 13.2454L19.4957 16.818L19.4429 16.8495L19.3126 16.9247L18.4536 17.4166L13.4666 14.4689L13.456 15.6942L17.3921 18.0222L16.4591 18.6314L16.438 18.6436L13.4666 16.902L13.456 18.1273L15.4029 19.2615L13.4155 20.4483L1.7973 13.5762L13.4349 6.61831L25.2344 13.4519ZM25.2344 12.2266L13.4401 5.31075L1.76561 12.2196V2.9897L13.5 1.76442L25.2344 2.9897V12.2266Z" fill="currentColor"/>
</g>

</g></symbol><symbol id="HTML-Academy-name" viewBox="0 0 113 16"><g fill="none">
<path d="M0.28125 12V0.546875H1.79688V5.25H7.75V0.546875H9.26562V12H7.75V6.60156H1.79688V12H0.28125ZM14.7109 12V1.89844H10.9375V0.546875H20.0156V1.89844H16.2266V12H14.7109ZM21.5312 12V0.546875H23.8125L26.5234 8.65625C26.7734 9.41146 26.9557 9.97656 27.0703 10.3516C27.2005 9.9349 27.4036 9.32292 27.6797 8.51562L30.4219 0.546875H32.4609V12H31V2.41406L27.6719 12H26.3047L22.9922 2.25V12H21.5312ZM34.8438 12V0.546875H36.3594V10.6484H42V12H34.8438ZM45.5234 12L49.9219 0.546875H51.5547L56.2422 12H54.5156L53.1797 8.53125H48.3906L47.1328 12H45.5234ZM48.8281 7.29688H52.7109L51.5156 4.125C51.151 3.16146 50.8802 2.36979 50.7031 1.75C50.5573 2.48438 50.3516 3.21354 50.0859 3.9375L48.8281 7.29688ZM62.6875 8.96094L64.0703 9.14062C63.9193 10.0938 63.5312 10.8411 62.9062 11.3828C62.2865 11.9193 61.5234 12.1875 60.6172 12.1875C59.4818 12.1875 58.5677 11.8177 57.875 11.0781C57.1875 10.3333 56.8438 9.26823 56.8438 7.88281C56.8438 6.98698 56.9922 6.20312 57.2891 5.53125C57.5859 4.85938 58.0365 4.35677 58.6406 4.02344C59.25 3.6849 59.9115 3.51562 60.625 3.51562C61.526 3.51562 62.263 3.74479 62.8359 4.20312C63.4089 4.65625 63.776 5.30208 63.9375 6.14062L62.5703 6.35156C62.4401 5.79427 62.2083 5.375 61.875 5.09375C61.5469 4.8125 61.1484 4.67188 60.6797 4.67188C59.9714 4.67188 59.3958 4.92708 58.9531 5.4375C58.5104 5.94271 58.2891 6.74479 58.2891 7.84375C58.2891 8.95833 58.5026 9.76823 58.9297 10.2734C59.3568 10.7786 59.9141 11.0312 60.6016 11.0312C61.1536 11.0312 61.6146 10.862 61.9844 10.5234C62.3542 10.1849 62.5885 9.66406 62.6875 8.96094ZM70.6875 10.9766C70.1667 11.4193 69.6641 11.7318 69.1797 11.9141C68.7005 12.0964 68.1849 12.1875 67.6328 12.1875C66.7214 12.1875 66.0208 11.9661 65.5312 11.5234C65.0417 11.0755 64.7969 10.5052 64.7969 9.8125C64.7969 9.40625 64.888 9.03646 65.0703 8.70312C65.2578 8.36458 65.5 8.09375 65.7969 7.89062C66.099 7.6875 66.4375 7.53385 66.8125 7.42969C67.0885 7.35677 67.5052 7.28646 68.0625 7.21875C69.1979 7.08333 70.0339 6.92188 70.5703 6.73438C70.5755 6.54167 70.5781 6.41927 70.5781 6.36719C70.5781 5.79427 70.4453 5.39062 70.1797 5.15625C69.8203 4.83854 69.2865 4.67969 68.5781 4.67969C67.9167 4.67969 67.4271 4.79688 67.1094 5.03125C66.7969 5.26042 66.5651 5.66927 66.4141 6.25781L65.0391 6.07031C65.1641 5.48177 65.3698 5.00781 65.6562 4.64844C65.9427 4.28385 66.3568 4.00521 66.8984 3.8125C67.4401 3.61458 68.0677 3.51562 68.7812 3.51562C69.4896 3.51562 70.0651 3.59896 70.5078 3.76562C70.9505 3.93229 71.276 4.14323 71.4844 4.39844C71.6927 4.64844 71.8385 4.96615 71.9219 5.35156C71.9688 5.59115 71.9922 6.02344 71.9922 6.64844V8.52344C71.9922 9.83073 72.0208 10.6589 72.0781 11.0078C72.1406 11.3516 72.2604 11.6823 72.4375 12H70.9688C70.8229 11.7083 70.7292 11.3672 70.6875 10.9766ZM70.5703 7.83594C70.0599 8.04427 69.2943 8.22135 68.2734 8.36719C67.6953 8.45052 67.2865 8.54427 67.0469 8.64844C66.8073 8.7526 66.6224 8.90625 66.4922 9.10938C66.362 9.30729 66.2969 9.52865 66.2969 9.77344C66.2969 10.1484 66.4375 10.4609 66.7188 10.7109C67.0052 10.9609 67.4219 11.0859 67.9688 11.0859C68.5104 11.0859 68.9922 10.9688 69.4141 10.7344C69.8359 10.4948 70.1458 10.1693 70.3438 9.75781C70.4948 9.4401 70.5703 8.97135 70.5703 8.35156V7.83594ZM79.5625 12V10.9531C79.0365 11.776 78.263 12.1875 77.2422 12.1875C76.5807 12.1875 75.9714 12.0052 75.4141 11.6406C74.862 11.276 74.4323 10.7682 74.125 10.1172C73.8229 9.46094 73.6719 8.70833 73.6719 7.85938C73.6719 7.03125 73.8099 6.28125 74.0859 5.60938C74.362 4.93229 74.776 4.41406 75.3281 4.05469C75.8802 3.69531 76.4974 3.51562 77.1797 3.51562C77.6797 3.51562 78.125 3.6224 78.5156 3.83594C78.9062 4.04427 79.224 4.31771 79.4688 4.65625V0.546875H80.8672V12H79.5625ZM75.1172 7.85938C75.1172 8.92188 75.3411 9.71615 75.7891 10.2422C76.237 10.7682 76.7656 11.0312 77.375 11.0312C77.9896 11.0312 78.5104 10.7812 78.9375 10.2812C79.3698 9.77604 79.5859 9.00781 79.5859 7.97656C79.5859 6.84115 79.3672 6.00781 78.9297 5.47656C78.4922 4.94531 77.9531 4.67969 77.3125 4.67969C76.6875 4.67969 76.1641 4.9349 75.7422 5.44531C75.3255 5.95573 75.1172 6.76042 75.1172 7.85938ZM88.7656 9.32812L90.2188 9.50781C89.9896 10.3568 89.5651 11.0156 88.9453 11.4844C88.3255 11.9531 87.5339 12.1875 86.5703 12.1875C85.3568 12.1875 84.3932 11.8151 83.6797 11.0703C82.9714 10.3203 82.6172 9.27083 82.6172 7.92188C82.6172 6.52604 82.9766 5.44271 83.6953 4.67188C84.4141 3.90104 85.3464 3.51562 86.4922 3.51562C87.6016 3.51562 88.5078 3.89323 89.2109 4.64844C89.9141 5.40365 90.2656 6.46615 90.2656 7.83594C90.2656 7.91927 90.263 8.04427 90.2578 8.21094H84.0703C84.1224 9.1224 84.3802 9.82031 84.8438 10.3047C85.3073 10.7891 85.8854 11.0312 86.5781 11.0312C87.0938 11.0312 87.5339 10.8958 87.8984 10.625C88.263 10.3542 88.5521 9.92188 88.7656 9.32812ZM84.1484 7.05469H88.7812C88.7188 6.35677 88.5417 5.83333 88.25 5.48438C87.8021 4.94271 87.2214 4.67188 86.5078 4.67188C85.862 4.67188 85.3177 4.88802 84.875 5.32031C84.4375 5.7526 84.1953 6.33073 84.1484 7.05469ZM91.9922 12V3.70312H93.25V4.86719C93.5104 4.46094 93.8568 4.13542 94.2891 3.89062C94.7214 3.64062 95.2135 3.51562 95.7656 3.51562C96.3802 3.51562 96.8828 3.64323 97.2734 3.89844C97.6693 4.15365 97.9479 4.51042 98.1094 4.96875C98.7656 4 99.6198 3.51562 100.672 3.51562C101.495 3.51562 102.128 3.74479 102.57 4.20312C103.013 4.65625 103.234 5.35677 103.234 6.30469V12H101.836V6.77344C101.836 6.21094 101.789 5.80729 101.695 5.5625C101.607 5.3125 101.443 5.11198 101.203 4.96094C100.964 4.8099 100.682 4.73438 100.359 4.73438C99.776 4.73438 99.2917 4.92969 98.9062 5.32031C98.5208 5.70573 98.3281 6.32552 98.3281 7.17969V12H96.9219V6.60938C96.9219 5.98438 96.8073 5.51562 96.5781 5.20312C96.349 4.89062 95.974 4.73438 95.4531 4.73438C95.0573 4.73438 94.6901 4.83854 94.3516 5.04688C94.0182 5.25521 93.776 5.5599 93.625 5.96094C93.474 6.36198 93.3984 6.9401 93.3984 7.69531V12H91.9922ZM105.258 15.1953L105.102 13.875C105.409 13.9583 105.677 14 105.906 14C106.219 14 106.469 13.9479 106.656 13.8438C106.844 13.7396 106.997 13.5938 107.117 13.4062C107.206 13.2656 107.349 12.9167 107.547 12.3594C107.573 12.2812 107.615 12.1667 107.672 12.0156L104.523 3.70312H106.039L107.766 8.50781C107.99 9.11719 108.19 9.75781 108.367 10.4297C108.529 9.78385 108.721 9.15365 108.945 8.53906L110.719 3.70312H112.125L108.969 12.1406C108.63 13.0521 108.367 13.6797 108.18 14.0234C107.93 14.487 107.643 14.8255 107.32 15.0391C106.997 15.2578 106.612 15.3672 106.164 15.3672C105.893 15.3672 105.591 15.3099 105.258 15.1953Z" fill="#444444"/>
</g></symbol><symbol id="icon_alarm" viewBox="0 0 61 60"><g fill="none">
<rect x="0.5" width="60" height="60" fill="#68B738"/>
<ellipse cx="35.7042" cy="24.3299" rx="1.0873" ry="1.08512" fill="white"/>
<ellipse cx="24.8311" cy="24.3299" rx="1.08731" ry="1.08512" fill="white"/>
<ellipse cx="24.8311" cy="37.3512" rx="1.08731" ry="1.08512" fill="white"/>
<ellipse cx="30.2677" cy="39.5215" rx="1.0873" ry="1.08512" fill="white"/>
<ellipse cx="21.5692" cy="30.7748" rx="1.08731" ry="1.08512" fill="white"/>
<ellipse cx="38.9661" cy="30.7748" rx="1.0873" ry="1.08512" fill="white"/>
<ellipse cx="35.7042" cy="37.3512" rx="1.0873" ry="1.08512" fill="white"/>
<mask id="path-9-inside-1_95_39" fill="white">
<path fill-rule="evenodd" clip-rule="evenodd" d="M35.4215 42.0581C35.8298 41.8622 36.3226 41.9298 36.6385 42.2542L38.4644 44.1292C38.7319 44.4039 39.1734 44.4039 39.441 44.1292C39.6987 43.8645 39.6987 43.4427 39.441 43.1781L38.0843 41.7849C37.6584 41.3475 37.7228 40.6356 38.182 40.2333C40.8238 37.9195 42.5 34.4688 42.5 30.6145C42.5 23.6477 37.0235 18 30.2678 18C23.5122 18 18.0356 23.6477 18.0356 30.6145C18.0356 34.4288 19.6773 37.8477 22.2717 40.1608C22.7244 40.5644 22.7849 41.2708 22.3617 41.7054L20.9276 43.1781C20.6698 43.4427 20.6698 43.8645 20.9276 44.1291C21.1951 44.4039 21.6366 44.4039 21.9042 44.1292L23.7838 42.199C24.1025 41.8718 24.6004 41.8061 25.0102 42.0076C26.603 42.7907 28.3858 43.229 30.2678 43.229C32.109 43.229 33.8553 42.8095 35.4215 42.0581ZM30.2678 41.8274C36.2728 41.8274 41.1409 36.8072 41.1409 30.6145C41.1409 24.4218 36.2728 19.4016 30.2678 19.4016C24.2628 19.4016 19.3948 24.4218 19.3948 30.6145C19.3948 36.8072 24.2628 41.8274 30.2678 41.8274ZM29.5083 30.298V26.5001V22.9409C29.5083 22.5094 29.8581 22.1596 30.2895 22.1596C30.721 22.1596 31.0708 22.5094 31.0708 22.9409V26.5001V30.298V30.8406V31.1226C31.0708 31.5661 30.7113 31.9257 30.2677 31.9257C29.8483 31.9257 29.5083 31.5857 29.5083 31.1663V30.8406V30.298Z"/>
</mask>
<path fill-rule="evenodd" clip-rule="evenodd" d="M35.4215 42.0581C35.8298 41.8622 36.3226 41.9298 36.6385 42.2542L38.4644 44.1292C38.7319 44.4039 39.1734 44.4039 39.441 44.1292C39.6987 43.8645 39.6987 43.4427 39.441 43.1781L38.0843 41.7849C37.6584 41.3475 37.7228 40.6356 38.182 40.2333C40.8238 37.9195 42.5 34.4688 42.5 30.6145C42.5 23.6477 37.0235 18 30.2678 18C23.5122 18 18.0356 23.6477 18.0356 30.6145C18.0356 34.4288 19.6773 37.8477 22.2717 40.1608C22.7244 40.5644 22.7849 41.2708 22.3617 41.7054L20.9276 43.1781C20.6698 43.4427 20.6698 43.8645 20.9276 44.1291C21.1951 44.4039 21.6366 44.4039 21.9042 44.1292L23.7838 42.199C24.1025 41.8718 24.6004 41.8061 25.0102 42.0076C26.603 42.7907 28.3858 43.229 30.2678 43.229C32.109 43.229 33.8553 42.8095 35.4215 42.0581ZM30.2678 41.8274C36.2728 41.8274 41.1409 36.8072 41.1409 30.6145C41.1409 24.4218 36.2728 19.4016 30.2678 19.4016C24.2628 19.4016 19.3948 24.4218 19.3948 30.6145C19.3948 36.8072 24.2628 41.8274 30.2678 41.8274ZM29.5083 30.298V26.5001V22.9409C29.5083 22.5094 29.8581 22.1596 30.2895 22.1596C30.721 22.1596 31.0708 22.5094 31.0708 22.9409V26.5001V30.298V30.8406V31.1226C31.0708 31.5661 30.7113 31.9257 30.2677 31.9257C29.8483 31.9257 29.5083 31.5857 29.5083 31.1663V30.8406V30.298Z" fill="white"/>
<path d="M23.7838 42.199L26.6495 44.9896L23.7838 42.199ZM25.0102 42.0076L26.775 38.418L25.0102 42.0076ZM21.9042 44.1292L19.0385 41.3385L21.9042 44.1292ZM20.9276 43.1781L23.7932 45.9687L20.9276 43.1781ZM38.0843 41.7849L35.2186 44.5756L38.0843 41.7849ZM38.182 40.2333L35.5465 37.2243L38.182 40.2333ZM22.2717 40.1608L19.6097 43.1464L22.2717 40.1608ZM22.3617 41.7054L19.4961 38.9147L22.3617 41.7054ZM39.441 43.1781L42.3067 40.3874L39.441 43.1781ZM38.4644 44.1292L41.3301 41.3385L38.4644 44.1292ZM36.6385 42.2542L33.7728 45.0449L36.6385 42.2542ZM35.4215 42.0581L33.6913 38.4516L35.4215 42.0581ZM33.7728 45.0449L35.5987 46.9198L41.3301 41.3385L39.5042 39.4636L33.7728 45.0449ZM42.3067 40.3874L40.95 38.9942L35.2186 44.5756L36.5753 45.9688L42.3067 40.3874ZM40.8175 43.2423C44.3075 40.1855 46.5 35.6466 46.5 30.6145H38.5C38.5 33.2911 37.3401 35.6534 35.5465 37.2243L40.8175 43.2423ZM46.5 30.6145C46.5 21.5555 39.3478 14 30.2678 14V22C34.6992 22 38.5 25.7399 38.5 30.6145H46.5ZM30.2678 14C21.1879 14 14.0356 21.5555 14.0356 30.6145H22.0356C22.0356 25.7399 25.8365 22 30.2678 22V14ZM14.0356 30.6145C14.0356 35.5943 16.183 40.0912 19.6097 43.1464L24.9336 37.1752C23.1716 35.6042 22.0356 33.2633 22.0356 30.6145H14.0356ZM19.4961 38.9147L18.0619 40.3874L23.7932 45.9687L25.2274 44.496L19.4961 38.9147ZM24.7699 46.9198L26.6495 44.9896L20.9181 39.4083L19.0385 41.3385L24.7699 46.9198ZM23.2454 45.5972C25.3722 46.6429 27.7573 47.229 30.2678 47.229V39.229C29.0143 39.229 27.8337 38.9385 26.775 38.418L23.2454 45.5972ZM30.2678 47.229C32.7236 47.229 35.0598 46.6681 37.1517 45.6645L33.6913 38.4516C32.6508 38.9508 31.4944 39.229 30.2678 39.229V47.229ZM30.2678 45.8274C38.5971 45.8274 45.1409 38.8994 45.1409 30.6145H37.1409C37.1409 34.715 33.9485 37.8274 30.2678 37.8274V45.8274ZM45.1409 30.6145C45.1409 22.3296 38.5971 15.4016 30.2678 15.4016V23.4016C33.9485 23.4016 37.1409 26.514 37.1409 30.6145H45.1409ZM30.2678 15.4016C21.9385 15.4016 15.3948 22.3296 15.3948 30.6145H23.3948C23.3948 26.514 26.5871 23.4016 30.2678 23.4016V15.4016ZM15.3948 30.6145C15.3948 38.8994 21.9385 45.8274 30.2678 45.8274V37.8274C26.5871 37.8274 23.3948 34.715 23.3948 30.6145H15.3948ZM27.0708 30.298V30.8406H35.0708V30.298H27.0708ZM27.0708 30.8406V31.1226H35.0708V30.8406H27.0708ZM33.5083 31.1663V30.8406H25.5083V31.1663H33.5083ZM33.5083 30.8406V30.298H25.5083V30.8406H33.5083ZM33.5083 30.298V26.5001H25.5083V30.298H33.5083ZM33.5083 26.5001V22.9409H25.5083V26.5001H33.5083ZM27.0708 22.9409V26.5001H35.0708V22.9409H27.0708ZM27.0708 26.5001V30.298H35.0708V26.5001H27.0708ZM30.2895 18.1596C27.6489 18.1596 25.5083 20.3003 25.5083 22.9409H33.5083C33.5083 24.7186 32.0672 26.1596 30.2895 26.1596V18.1596ZM27.0708 31.1226C27.0708 29.357 28.5021 27.9257 30.2677 27.9257V35.9257C32.9204 35.9257 35.0708 33.7753 35.0708 31.1226H27.0708ZM26.6495 44.9896C25.6569 46.009 24.2521 46.0922 23.2454 45.5972L26.775 38.418C24.9487 37.52 22.548 37.7346 20.9181 39.4083L26.6495 44.9896ZM18.0619 46.9198C19.8997 48.807 22.9321 48.807 24.7699 46.9198L19.0385 41.3385C20.3412 40.0008 22.4906 40.0008 23.7933 41.3385L18.0619 46.9198ZM18.0619 40.3874C16.2917 42.2051 16.2917 45.1021 18.0619 46.9198L23.7933 41.3385C25.048 42.6269 25.0479 44.6803 23.7932 45.9687L18.0619 40.3874ZM40.95 38.9942C42.2927 40.3731 41.894 42.2994 40.8175 43.2423L35.5465 37.2243C33.5515 38.9717 33.024 42.3219 35.2186 44.5756L40.95 38.9942ZM30.2895 26.1596C28.5119 26.1596 27.0708 24.7186 27.0708 22.9409H35.0708C35.0708 20.3003 32.9302 18.1596 30.2895 18.1596V26.1596ZM19.6097 43.1464C18.5463 42.1983 18.1626 40.2839 19.4961 38.9147L25.2274 44.496C27.4071 42.2577 26.9025 38.9306 24.9336 37.1752L19.6097 43.1464ZM42.3067 46.9198C44.0768 45.1021 44.0768 42.2051 42.3067 40.3874L36.5753 45.9688C35.3206 44.6803 35.3206 42.6269 36.5753 41.3385L42.3067 46.9198ZM35.5987 46.9198C37.4365 48.807 40.4689 48.807 42.3067 46.9198L36.5753 41.3385C37.878 40.0008 40.0274 40.0008 41.3301 41.3385L35.5987 46.9198ZM30.2677 27.9257C32.0574 27.9257 33.5083 29.3765 33.5083 31.1663H25.5083C25.5083 33.7948 27.6391 35.9257 30.2677 35.9257V27.9257ZM39.5042 39.4636C37.8881 37.804 35.5117 37.5783 33.6913 38.4516L37.1517 45.6645C36.148 46.1461 34.757 46.0555 33.7728 45.0449L39.5042 39.4636Z" fill="white" mask="url(#path-9-inside-1_95_39)"/>
<rect x="29.5" y="19" width="4" height="1.5" transform="rotate(-90 29.5 19)" fill="white"/>
<rect x="22.5" y="15" width="15.5" height="1.5" rx="0.75" fill="white"/>
</g></symbol><symbol id="icon_eat" viewBox="0 0 61 60"><g fill="none">
<rect x="0.5" width="60" height="60" fill="#68B738"/>
<path fill-rule="evenodd" clip-rule="evenodd" d="M37.1173 15.0761C37.491 14.9214 37.9211 15.0069 38.2071 15.2929C39.1156 16.2014 40.3038 18.1706 41.2659 21.2108C42.2373 24.2804 43 28.5081 43 34C43 34.5523 42.5523 35 42 35H38.5V44C38.5 44.5523 38.0523 45 37.5 45C36.9477 45 36.5 44.5523 36.5 44V16C36.5 15.5956 36.7436 15.2309 37.1173 15.0761ZM38.5 33H40.9912C40.9053 28.1836 40.2051 24.4875 39.3591 21.8142C39.0807 20.9346 38.7885 20.1715 38.5 19.519V33Z" fill="white"/>
<path fill-rule="evenodd" clip-rule="evenodd" d="M24.5 15C25.0523 15 25.5 15.4477 25.5 16V44C25.5 44.5523 25.0523 45 24.5 45C23.9477 45 23.5 44.5523 23.5 44V16C23.5 15.4477 23.9477 15 24.5 15Z" fill="white"/>
<path fill-rule="evenodd" clip-rule="evenodd" d="M20 15C20.5523 15 21 15.4477 21 16V21.5C21 22.0569 21.192 22.8152 21.7009 23.4166C22.18 23.9828 23.0145 24.5 24.4999 24.5C25.0522 24.5 25.4999 24.9477 25.4999 25.5C25.4999 26.0523 25.0522 26.5 24.4999 26.5C22.4855 26.5 21.07 25.7672 20.1741 24.7084C19.308 23.6848 19 22.4431 19 21.5V16C19 15.4477 19.4477 15 20 15Z" fill="white"/>
<path fill-rule="evenodd" clip-rule="evenodd" d="M29 15C28.4477 15 28 15.4477 28 16V21.5C28 22.0569 27.808 22.8152 27.2991 23.4166C26.82 23.9828 25.9854 24.5 24.4999 24.5C23.9476 24.5 23.5001 24.9477 23.5001 25.5C23.5001 26.0523 23.9476 26.5 24.4999 26.5C26.5144 26.5 27.93 25.7672 28.8259 24.7084C29.692 23.6848 30 22.4431 30 21.5V16C30 15.4477 29.5523 15 29 15Z" fill="white"/>
</g></symbol><symbol id="icon_leaf" viewBox="0 0 61 60"><g fill="none">
<rect x="0.5" width="60" height="60" fill="#68B738"/>
<g clip-path="url(#clip0_95_18)">
<path d="M43.3438 16.767C43.2434 16.317 42.8647 16 42.4325 16C42.4306 16 42.4288 16 42.4269 16C37.4891 16.033 25.4816 16.916 20.6337 24.38C18.1156 28.258 17.8991 33.293 19.9897 39.345C20.0056 39.392 20.0384 39.424 20.06 39.467C19.3128 41.44 19.0231 42.753 19.0156 42.79C18.9069 43.33 19.2303 43.862 19.7366 43.978C19.8022 43.993 19.8678 44 19.9334 44C20.3656 44 20.7547 43.679 20.8494 43.21C20.8691 43.108 23.2578 32.837 31.7028 26.832C32.1341 26.526 32.2503 25.905 31.9625 25.445C31.6747 24.985 31.0934 24.86 30.6622 25.168C25.8734 28.573 22.9241 33.176 21.1897 36.824C19.9484 32.246 20.2737 28.447 22.1759 25.519C25.9194 19.755 34.7984 18.365 40.1581 18.071C39.005 19.872 37.745 23.174 37.745 29C37.745 32.12 36.9153 34.522 35.2803 36.14C32.6591 38.731 28.4009 38.974 25.2866 38.724C24.7691 38.679 24.32 39.095 24.2806 39.646C24.2412 40.196 24.6284 40.676 25.1441 40.718C25.7675 40.769 26.4331 40.8 27.125 40.8C30.2956 40.8 33.9941 40.137 36.5544 37.606C38.5888 35.595 39.62 32.7 39.62 29.001C39.62 19.902 42.8356 17.905 42.8516 17.896C43.2416 17.687 43.4459 17.219 43.3438 16.767Z" fill="white"/>
</g>

</g></symbol><symbol id="icon_tub"><g fill="none">
  <path fill="#68B738" d="M.5 0h60v60H.5z"/>
  <g clip-path="url(#a)" fill="#fff">
    <path d="M36.28 31.47c-1.71 0-3.1 1.48-3.1 3.3 0 1.83 1.4 3.3 3.1 3.3 1.7 0 3.08-1.47 3.08-3.3 0-1.82-1.38-3.3-3.08-3.3Zm0 5.02c-.89 0-1.6-.77-1.6-1.71 0-.95.71-1.72 1.6-1.72.88 0 1.6.77 1.6 1.72 0 .94-.72 1.7-1.6 1.7ZM27.1 12.99c-1.75 0-3.18 1.52-3.18 3.4 0 1.89 1.43 3.41 3.19 3.41s3.18-1.52 3.18-3.4c0-1.89-1.42-3.41-3.18-3.41Zm0 5.48c-1.06 0-1.93-.93-1.93-2.07 0-1.15.87-2.07 1.94-2.07 1.07 0 1.93.92 1.93 2.07 0 1.14-.86 2.07-1.93 2.07ZM23.73 30.61c-1.3 0-2.34 1.12-2.34 2.5 0 1.39 1.04 2.5 2.34 2.5 1.3 0 2.34-1.11 2.34-2.5 0-1.38-1.05-2.5-2.34-2.5Zm-.23 1.89c-.46 0 1.16 1.1 1.16.61 0-.49-1.62.39-1.16.39.46 0 1.06-.88 1.06-.39 0 .5-.6-.61-1.06-.61ZM34 22.76s3.04-.84 6.18 1.5c.9.76 1.76 1.33 1.15 2.12-.34.34-.64.66-1.72-.53A6.92 6.92 0 0 0 34 24.41c-1.13.24-1.96.55-3.56 2.15a8.27 8.27 0 0 1-6.5 2.5c-2.52-.24-3.84-1.27-5.24-2.55-.3-.42-.3-.87-.12-1.13.17-.26.83-.52 1.2-.13.37.4 2.1 1.97 3.82 2.07 1.72.1 3.44.21 5.74-1.96 2.3-2.18 3.46-2.34 4.66-2.6Z"/>
    <mask id="b">
      <path d="M44.15 39.82V21.16c0-.58-.38-.65-.53-.66h-.5c-.5 0-.54.56-.54.74V39.84a2.68 2.68 0 0 1-.82 1.89c-.81.7-1.62.6-1.62.6s-20.18 0-20.66-.03a2.3 2.3 0 0 1-1.6-1c-.57-.8-.46-1.85-.46-1.85V21.3c0-.83-.67-.8-.67-.8h-.3c-.54 0-.6.58-.6.77v18.54c0 1.33.46 2.4 1.55 3.33 1.1.94 2.38.86 2.38.86h20.58c.86 0 1.98-.42 2.91-1.56.93-1.14.88-2.63.88-2.63Z"/>
    </mask>
    <path d="M44.15 39.82V21.16c0-.58-.38-.65-.53-.66h-.5c-.5 0-.54.56-.54.74V39.84a2.68 2.68 0 0 1-.82 1.89c-.81.7-1.62.6-1.62.6s-20.18 0-20.66-.03a2.3 2.3 0 0 1-1.6-1c-.57-.8-.46-1.85-.46-1.85V21.3c0-.83-.67-.8-.67-.8h-.3c-.54 0-.6.58-.6.77v18.54c0 1.33.46 2.4 1.55 3.33 1.1.94 2.38.86 2.38.86h20.58c.86 0 1.98-.42 2.91-1.56.93-1.14.88-2.63.88-2.63Z"/>
    <path d="M44.15 39.82h-20v.38l.01.39 19.99-.77Zm-.53-19.32L44.33.51h-.71v20Zm-1.04.74-20-.15V21.24h20Zm0 .06h-20 20Zm0 18.54-19.99-.76v.02l19.99.74Zm-.82 1.89 13.03 15.16.44-.37.4-.4-13.87-14.4Zm-1.62.6 2.26-19.87-1.13-.13h-1.13v20Zm-20.66-.03-3.4 19.71 1.14.2 1.15.06 1.11-19.97Zm-1.6-1L1.53 52.82 17.89 41.3Zm-.46-1.85 19.9 2.1.1-1.05v-1.05h-20Zm-.67-18.95v20h.39l.38-.01-.77-19.99Zm-.9.78-20-.29V21.28h20Zm1.55 21.87L4.38 58.33 17.4 43.15Zm2.38.86V24h-.65l-.64.04 1.29 19.96Zm23.5-1.56L58.75 55.1 43.28 42.45Zm20.87-2.63V21.16h-40v18.66h40Zm0-18.66A20.54 20.54 0 0 0 44.34.52L42.9 40.48a19.46 19.46 0 0 1-18.76-19.33h40ZM43.62.5h-.5v40h.5V.5Zm-.5 0a20.47 20.47 0 0 0-18.7 12.12c-1.8 4-1.83 7.56-1.84 8.47l40 .3c0 .73-.02 3.91-1.67 7.6a19.47 19.47 0 0 1-17.8 11.51V.5ZM22.58 21.24v.05h40v-.04h-40Zm0 .05v.01h40-40Zm0 .02v10.51a8664.75 8664.75 0 0 1 0 7.25c0 .8 0 .45.01.01l39.97 1.52c.02-.51.02-1.37.02-1.45a1362.33 1362.33 0 0 0 0-7.34V21.3l-40 .02Zm.01 17.79c.05-1.35.38-7.05 5.28-11.77l27.77 28.8a22.68 22.68 0 0 0 6.92-15.54l-39.97-1.5Zm6.13-12.54a17.51 17.51 0 0 1 12.43-4.2 19.31 19.31 0 0 1 1.17.1h.06s.02 0-2.24 19.87a2063.4 2063.4 0 0 0-2.24 19.88h.02a42.98 42.98 0 0 0 1.28.1 21.38 21.38 0 0 0 5.56-.45A22.49 22.49 0 0 0 54.8 56.9L28.72 26.56Zm11.42 15.77v-20h-3.16a17380.76 17380.76 0 0 1-16.39-.02c-1.07 0-.61 0 0 .03l-2.22 39.93c.97.06 7.17.06 11.6.06h10.16v-20ZM22.88 22.6c.43.08 2.52.43 4.93 1.66 2.57 1.3 4.78 3.2 6.4 5.51L1.55 52.83c5 7.08 11.87 8.72 14.55 9.18l6.79-39.42Zm11.34 7.18a17.34 17.34 0 0 1 3.13 11.4 18.52 18.52 0 0 1-.03.28v.08c0 .01 0 .02-19.9-2.08a3223.4 3223.4 0 0 0-19.89-2.08v.03a19.88 19.88 0 0 0-.11 1.94 22.66 22.66 0 0 0 4.12 13.48l32.68-23.05Zm3.2 9.68V21.3h-40v18.14h40Zm0-18.14A20.74 20.74 0 0 0 17.78.53 20.46 20.46 0 0 0 16 .52c-.01 0-.03 0 .75 19.98.77 19.99.76 19.99.75 19.99h-.07a28.23 28.23 0 0 1-1.65-.01A19.35 19.35 0 0 1-2.58 21.3h40ZM16.75.51h-.3v40h.3V.5Zm-.3 0A20.52 20.52 0 0 0-2.18 12.34 21.17 21.17 0 0 0-4.14 21l40 .58c-.02.76-.05 4-1.8 7.72A19.44 19.44 0 0 1 16.45 40.5V.5Zm-20.6 20.77V39.82h40V21.28h-40Zm0 18.54c0 7.06 2.92 13.7 8.53 18.51l26.05-30.35a15.63 15.63 0 0 1 4 5.37 15.72 15.72 0 0 1 1.42 6.47h-40Zm8.53 18.51a23.59 23.59 0 0 0 16.56 5.65H21l.03-.01h.01c.01 0 .02 0-1.26-19.96a2530.9 2530.9 0 0 1-1.26-19.96h.1a16.03 16.03 0 0 1 1.95-.02 16.39 16.39 0 0 1 9.86 3.95L4.38 58.33Zm15.4-14.32v20H40.41l-.1-40H19.77v20ZM40.4 64c7.1-.02 13.8-3.34 18.35-8.9L27.8 29.8A16.17 16.17 0 0 1 40.3 24l.11 40Zm18.36-8.91a23.97 23.97 0 0 0 5.38-15.11 21.8 21.8 0 0 0-.02-.9v-.04l-19.98.77-19.99.76v-.09a17.13 17.13 0 0 1 .27-3.65c.28-1.4 1.03-4.2 3.35-7.03L58.77 55.1Z" mask="url(#b)"/>
  </g>
  
</g></symbol><symbol id="instagram" viewBox="0 0 20 20"><g fill="currentColor">
<path d="M9.98047 0.078125C11.6471 0.078125 13.0078 0.0976562 14.0625 0.136719C14.9609 0.175781 15.7617 0.332031 16.4648 0.605469C17.1419 0.865885 17.7279 1.24349 18.2227 1.73828C18.7174 2.23307 19.0951 2.81901 19.3555 3.49609C19.6289 4.19922 19.7852 5 19.8242 5.89844C19.8633 6.95312 19.8828 8.3138 19.8828 9.98047C19.8828 11.6471 19.8633 13.0078 19.8242 14.0625C19.7852 14.9609 19.6289 15.7617 19.3555 16.4648C19.0951 17.1419 18.7174 17.7279 18.2227 18.2227C17.7279 18.7174 17.1419 19.0951 16.4648 19.3555C15.7617 19.6289 14.9609 19.7852 14.0625 19.8242C13.0078 19.8633 11.6471 19.8828 9.98047 19.8828C8.3138 19.8828 6.95312 19.8633 5.89844 19.8242C5 19.7852 4.19922 19.6289 3.49609 19.3555C2.81901 19.0951 2.23307 18.7174 1.73828 18.2227C1.24349 17.7279 0.865885 17.1419 0.605469 16.4648C0.332031 15.7617 0.175781 14.9609 0.136719 14.0625C0.0976562 13.0078 0.078125 11.6471 0.078125 9.98047C0.078125 8.3138 0.0976562 6.95312 0.136719 5.89844C0.175781 5 0.332031 4.19922 0.605469 3.49609C0.865885 2.81901 1.24349 2.23307 1.73828 1.73828C2.23307 1.24349 2.81901 0.865885 3.49609 0.605469C4.19922 0.332031 5 0.175781 5.89844 0.136719C6.95312 0.0976562 8.3138 0.078125 9.98047 0.078125ZM9.98047 1.36719C8.2487 1.36719 6.83594 1.38672 5.74219 1.42578C5.03906 1.45182 4.38802 1.57552 3.78906 1.79687C2.85156 2.1875 2.1875 2.85156 1.79688 3.78906C1.57552 4.38802 1.45182 5.03906 1.42578 5.74219C1.38672 6.83594 1.36719 8.2487 1.36719 9.98047C1.36719 11.7122 1.38672 13.125 1.42578 14.2187C1.45182 14.9219 1.57552 15.5729 1.79688 16.1719C2.1875 17.1094 2.85156 17.7734 3.78906 18.1641C4.38802 18.3854 5.03906 18.5091 5.74219 18.5352C6.83594 18.5742 8.2487 18.5937 9.98047 18.5937C11.7122 18.5937 13.125 18.5742 14.2188 18.5352C14.9219 18.5091 15.5729 18.3854 16.1719 18.1641C17.1094 17.7734 17.7734 17.1094 18.1641 16.1719C18.3854 15.5729 18.5091 14.9219 18.5352 14.2187C18.5742 13.125 18.5938 11.7122 18.5938 9.98047C18.5938 8.2487 18.5742 6.83594 18.5352 5.74219C18.5091 5.03906 18.3854 4.38802 18.1641 3.78906C17.7734 2.85156 17.1094 2.1875 16.1719 1.79687C15.5729 1.57552 14.9219 1.45182 14.2188 1.42578C13.125 1.38672 11.7122 1.36719 9.98047 1.36719ZM9.98047 13.9453C11.0742 13.9453 12.0085 13.5579 12.7832 12.7832C13.5579 12.0085 13.9453 11.0742 13.9453 9.98047C13.9453 8.88672 13.5579 7.95247 12.7832 7.17773C12.0085 6.40299 11.0742 6.01562 9.98047 6.01562C8.88672 6.01562 7.95247 6.40299 7.17773 7.17773C6.40299 7.95247 6.01562 8.88672 6.01562 9.98047C6.01562 11.0742 6.40299 12.0085 7.17773 12.7832C7.95247 13.5579 8.88672 13.9453 9.98047 13.9453ZM9.98047 4.90234C11.3867 4.90234 12.5846 5.39713 13.5742 6.38672C14.5638 7.3763 15.0586 8.57422 15.0586 9.98047C15.0586 11.3867 14.5638 12.5846 13.5742 13.5742C12.5846 14.5638 11.3867 15.0586 9.98047 15.0586C8.57422 15.0586 7.3763 14.5638 6.38672 13.5742C5.39714 12.5846 4.90234 11.3867 4.90234 9.98047C4.90234 8.57422 5.39714 7.3763 6.38672 6.38672C7.3763 5.39713 8.57422 4.90234 9.98047 4.90234ZM16.4648 4.70703C16.4648 5.03255 16.3477 5.30924 16.1133 5.53711C15.8789 5.76497 15.5924 5.87891 15.2539 5.87891C14.9284 5.87891 14.6517 5.76497 14.4238 5.53711C14.196 5.30924 14.082 5.03255 14.082 4.70703C14.082 4.36849 14.196 4.08203 14.4238 3.84766C14.6517 3.61328 14.9284 3.49609 15.2539 3.49609C15.5794 3.49609 15.8626 3.61654 16.1035 3.85742C16.3444 4.09831 16.4648 4.38151 16.4648 4.70703Z" fill="currentColor"/>
</g></symbol><symbol id="logo-name" viewBox="0 0 101 18"><g fill="none">
<g clip-path="url(#clip0_135_3354)">
<path d="M1.26449 16.5385C0.36955 15.2762 -0.0747041 13.7627 1.02073e-05 12.2308V5.84615C-0.108365 4.29774 0.308071 2.75746 1.18546 1.46154C2.05478 0.461538 3.39829 0 5.37403 0C7.34978 0 8.61425 0.461538 9.40455 1.30769C10.2626 2.37941 10.6846 3.72136 10.59 5.07692V6.61539H6.71754V4.84615C6.74881 4.32289 6.66808 3.799 6.48045 3.30769C6.38016 3.10938 6.2212 2.9448 6.02403 2.83513C5.82686 2.72547 5.60049 2.67572 5.37403 2.69231C4.82082 2.69231 4.42568 2.84615 4.26762 3.23077C4.08883 3.77733 4.00862 4.34988 4.03053 4.92308V13.1538C3.98879 13.71 4.0978 14.267 4.34665 14.7692C4.5047 15.1538 4.89985 15.3077 5.45306 15.3077C6.00627 15.3077 6.32239 15.1538 6.48045 14.7692C6.66013 14.2494 6.74049 13.7019 6.71754 13.1538V11.3077H10.59V12.8462C10.6704 14.2238 10.2508 15.5852 9.40455 16.6923C8.61425 17.6154 7.27075 18.0769 5.37403 18.0769C3.47732 18 2.05478 17.5385 1.26449 16.5385Z" fill="#111111"/>
<path d="M15.2527 0.230774H19.7574L23.0767 17.7692H19.4413L18.8091 14.0769H16.2011L15.5689 17.7692H11.8545L15.2527 0.230774ZM18.493 11.7692L17.5446 4.92308L16.5963 11.7692H18.493Z" fill="#111111"/>
<path d="M25.8427 3.15385H23.1557V0.230774H32.5602V3.07693H29.8732V17.7692H25.8427V3.15385Z" fill="#111111"/>
<path d="M39.752 0.230774H46.7066V2.07693H42.2019V7.84616H45.8372V9.61539H42.2019V16.0769H46.7066V17.8462H39.6729V0.230774H39.752Z" fill="#111111"/>
<path d="M48.7613 0.230774H50.5L55.6369 11.8462V0.230774H57.6917V17.7692H56.1111L50.8951 5.76924V17.7692H48.7613V0.230774Z" fill="#111111"/>
<path d="M60.0626 0.230774H67.0172V2.07693H62.5125V7.84616H66.1479V9.61539H62.5125V16.0769H67.0172V17.8462H60.0626V0.230774Z" fill="#111111"/>
<path d="M69.072 0.230769H72.7074C74.1375 0.134616 75.5587 0.514352 76.7379 1.30769C77.6072 2 78.0024 3.23077 78.0024 4.84615C78.0024 7.07692 77.2911 8.46154 75.7895 8.92308L78.3185 17.6923H75.8686L73.4977 9.46154H71.5219V17.6923H68.993V0.230769H69.072ZM72.5493 7.76923C73.364 7.83458 74.1761 7.61652 74.8412 7.15384C75.3154 6.76923 75.5524 6 75.5524 4.84615C75.5743 4.27296 75.4941 3.7004 75.3154 3.15385C75.1375 2.76165 74.832 2.4373 74.446 2.23077C73.9017 1.98934 73.3042 1.8836 72.7074 1.92308H71.601V7.69231H72.5493V7.76923Z" fill="#111111"/>
<path d="M81.1635 16.4615C80.342 15.1166 79.9564 13.5617 80.0571 12V6.15385C80.0376 5.03911 80.1705 3.9268 80.4522 2.84616C80.7167 2.03863 81.2437 1.33668 81.9538 0.846156C82.8362 0.337752 83.8542 0.0967332 84.8779 0.153848C86.5375 0.153848 87.723 0.538464 88.4343 1.38462C89.2524 2.50191 89.6438 3.86238 89.5407 5.23077V5.84616H87.1698V5.30769C87.1734 4.66346 87.1205 4.0201 87.0117 3.38462C86.9451 2.98304 86.7178 2.62349 86.3795 2.38462C85.9353 2.10082 85.4081 1.96579 84.8779 2C84.3113 1.96466 83.7504 2.12843 83.2973 2.46154C83.1114 2.61401 82.9595 2.80182 82.8508 3.01345C82.742 3.22508 82.6789 3.45608 82.6651 3.69231C82.5609 4.37999 82.5081 5.07412 82.507 5.76923V12.3077C82.4488 13.3038 82.6105 14.3006 82.9812 15.2308C83.2973 15.8462 83.9296 16.0769 84.8779 16.0769C85.2524 16.1223 85.6322 16.0589 85.9697 15.8947C86.3072 15.7304 86.5873 15.4727 86.7746 15.1538C87.1922 14.1811 87.3812 13.1299 87.3278 12.0769V10.8462H85.036V9.07693H89.6197V17.7692H88.0391L87.802 15.7692C87.5948 16.4395 87.1634 17.0231 86.5763 17.4273C85.9892 17.8315 85.2801 18.0331 84.5618 18C83.9088 18.0374 83.2565 17.9164 82.6633 17.6479C82.0702 17.3794 81.5549 16.9717 81.1635 16.4615Z" fill="#111111"/>
<path d="M94.6776 11.6154L90.8052 0.307693H93.1761L95.9421 8.76923L98.6291 0.307693H101L97.1275 11.6154V17.7692H94.7566V11.6154H94.6776Z" fill="#111111"/>
</g>

</g></symbol><symbol id="phone" viewBox="0 0 20 21"><g fill="none">
<g clip-path="url(#clip0_153_253)">
<path d="M17.9 9.75275H9.39999V10.9569H17.9L15.8 13.0641L16.7 13.9672L19.8 10.8565C19.8974 10.7263 19.95 10.5678 19.95 10.405C19.95 10.2421 19.8974 10.0837 19.8 9.95344L16.7 6.84277L15.8 7.74587L17.9 9.75275Z" fill="black"/>
<path d="M8.10001 19.7872V13.5659C8.08846 13.41 8.02154 13.2635 7.91142 13.153C7.80131 13.0425 7.65531 12.9754 7.50001 12.9638H3.10001C3.10516 13.2815 3.23325 13.5848 3.45718 13.8095C3.68112 14.0342 3.98336 14.1627 4.30001 14.1679H6.80001V19.1851H3.10001C2.86326 19.2 2.62591 19.1676 2.40176 19.0896C2.17762 19.0117 1.97115 18.8898 1.79436 18.7311C1.61757 18.5723 1.47399 18.3799 1.37196 18.165C1.26992 17.9501 1.21148 17.717 1.20001 17.4793V3.43111C1.19181 2.96681 1.36516 2.51774 1.68292 2.18013C2.00069 1.84252 2.43758 1.64322 2.90001 1.62492H6.80001V6.64212H4.40001C4.08336 6.64729 3.78112 6.77581 3.55718 7.00052C3.33325 7.22523 3.20516 7.52851 3.20001 7.84625H7.60001C7.75531 7.83466 7.90131 7.76751 8.01142 7.65701C8.12154 7.54651 8.18846 7.40002 8.20001 7.24418V0.922517C8.15232 0.76584 8.06117 0.626022 7.93721 0.519407C7.81325 0.412792 7.66161 0.343785 7.50001 0.320453H3.10001C2.70599 0.307054 2.31321 0.371716 1.94411 0.510744C1.57501 0.649771 1.23684 0.860436 0.948933 1.13069C0.661026 1.40095 0.42903 1.7255 0.266207 2.08579C0.103385 2.44608 0.01293 2.83504 1.46306e-05 3.23043V17.1782C-0.0289644 17.5773 0.0246504 17.978 0.157487 18.3552C0.290324 18.7324 0.499509 19.078 0.771886 19.3701C1.04426 19.6623 1.37394 19.8947 1.74019 20.0529C2.10643 20.211 2.50132 20.2913 2.90001 20.2889H7.50001C7.5735 20.304 7.64943 20.3022 7.72216 20.2839C7.7949 20.2655 7.86259 20.2309 7.92021 20.1828C7.97783 20.1346 8.02391 20.074 8.05504 20.0055C8.08616 19.9371 8.10153 19.8624 8.10001 19.7872Z" fill="black"/>
</g>

</g></symbol><symbol id="slim-cat" viewBox="0 0 200 211"><g fill="none">
<circle cx="100" cy="111" r="100" fill="#68B738"/>
<g clip-path="url(#clip0_2403_755)">
<path d="M139.68 0H138.92C137.636 0.725875 136.614 1.83883 136 3.18C134.875 5.34423 134.009 7.63331 133.42 10C133.294 10.7116 132.934 11.3611 132.398 11.8462C131.863 12.3313 131.181 12.6246 130.46 12.68C128.256 13.06 126.167 13.9386 124.355 15.2489C122.542 16.5591 121.052 18.2663 120 20.24C118.553 22.8026 117.316 25.478 116.3 28.24C113.46 35.6 111.28 43.2 108.6 50.62C107.34 54 107.28 54 103.48 54C98.94 54 99.26 53.3 99.2 58.3C99.2 59.88 99.68 60.68 101.36 60.6C101.88 60.6 102.66 60.34 102.86 61.02C103.06 61.7 102.38 62 101.98 62.4C99.6086 64.8073 96.6075 66.4984 93.32 67.28C89.52 68.3 85.64 69.1 81.94 70.34C72.44 73.52 63.66 77.96 56.82 85.48C52.8206 90.1507 49.6177 95.4483 47.34 101.16C40 118.44 36.44 136.64 33.68 155.02C32.38 163.64 31.46 172.3 30.76 181.02C30.4 185.3 30 189.64 30 194H96.66C96.7707 193.12 96.6102 192.227 96.2 191.44C95.5589 189.844 94.5171 188.441 93.1753 187.365C91.8335 186.29 90.237 185.578 88.54 185.3C87.14 184.98 86.98 184.56 87.84 183.46C89.2427 181.588 90.318 179.492 91.02 177.26C94.28 167.64 95.54 157.6 97.12 147.66C98.0125 140.068 100.348 132.716 104 126C106.849 121.057 110.649 116.727 115.18 113.26C116.84 112 116.9 112 117.18 114.14C117.38 115.56 117.42 117.02 117.52 118.46C118.12 127.909 118 137.39 117.16 146.82C116.405 154.13 116.304 161.492 116.86 168.82C117.655 177.327 119.174 185.751 121.4 194H148C147.653 191.835 146.656 189.826 145.142 188.241C143.627 186.655 141.667 185.567 139.52 185.12C137.013 184.722 134.45 184.858 132 185.52C130.8 185.8 130.3 185.52 130.2 184.22C129.373 173.632 130.046 162.98 132.2 152.58C134.868 140.574 136.91 128.438 138.32 116.22C138.845 111.286 140.398 106.517 142.88 102.22C145.26 97.98 147.34 93.58 149.68 89.32C150.609 87.771 151.168 86.0286 151.314 84.2282C151.46 82.4279 151.188 80.6182 150.52 78.94C149.98 77.52 149.46 76.08 148.8 74.72C146.8 70.82 144.8 66.96 142.96 63.02C141.98 61.02 142.2 60.78 144.38 60.72C147.64 60.72 147.64 60.72 147.7 57.44C147.7 57 147.7 56.56 147.7 56.12C147.7 54.74 147.18 53.98 145.7 54.12C144.7 54.12 143.7 54.12 142.66 54.12C141.28 54.12 140.88 53.54 141.22 52.12C141.895 49.8116 143.222 47.7473 145.042 46.1755C146.862 44.6037 149.098 43.5912 151.48 43.26C155.911 42.8758 160.376 43.1657 164.72 44.12C165.221 44.2779 165.765 44.2322 166.232 43.9927C166.7 43.7531 167.055 43.3391 167.22 42.84C168.02 40.84 168.9 38.84 169.8 36.84C170.004 36.4852 170.094 36.0763 170.058 35.6686C170.023 35.2608 169.863 34.8739 169.6 34.56C163.2 26.44 156.26 18.86 146.8 14C146.343 13.8033 145.942 13.4952 145.635 13.1039C145.328 12.7127 145.123 12.2506 145.04 11.76C144.505 8.90102 143.653 6.11051 142.5 3.44C141.959 2.01723 140.969 0.809563 139.68 0V0Z" fill="black"/>
</g>

</g></symbol><symbol id="vk" viewBox="0 0 28 18"><g fill="currentColor">
<path d="M0.0853271 2.48988C0.0853271 1.63485 0.60043 1.17381 1.63064 1.10674L5.60048 1.13189C5.86691 1.13189 6.04453 1.25763 6.13334 1.50911C6.54187 2.76651 6.99925 3.85206 7.50547 4.76577C8.01169 5.67948 8.67333 6.7315 9.49039 7.92183C9.56144 8.07272 9.6769 8.14816 9.83675 8.14816C9.96109 8.14816 10.0588 8.08949 10.1298 7.97213L10.2098 7.6955L10.2364 3.34491C10.2364 3.04313 10.1609 2.84195 10.0099 2.74136C9.85896 2.64077 9.5792 2.56532 9.17067 2.51503C8.85096 2.46473 8.6911 2.28031 8.6911 1.96177C8.6911 1.89471 8.69998 1.84442 8.71774 1.81089C9.09074 0.721143 10.1565 0.176271 11.9149 0.176271L13.4069 0.151123C14.0819 0.151123 14.6414 0.310393 15.0855 0.628934C15.5295 0.947474 15.7516 1.45043 15.7516 2.13781V7.84639C15.8759 7.93022 15.9913 7.97213 16.0979 7.97213C16.3643 7.97213 16.5953 7.82124 16.7906 7.51947C18.7445 4.93761 19.8013 3.21079 19.9612 2.33899C19.9612 2.32223 19.979 2.28031 20.0145 2.21325C20.1388 1.96177 20.3431 1.74383 20.6273 1.55941C20.9115 1.37499 21.1601 1.24925 21.3733 1.18219C21.4443 1.14866 21.5243 1.13189 21.6131 1.13189H25.7428L26.0092 1.15704C26.3644 1.15704 26.6398 1.31631 26.8351 1.63485C26.9062 1.73544 26.955 1.84442 26.9817 1.96177C27.0083 2.07913 27.0261 2.19649 27.035 2.31384C27.0438 2.4312 27.0483 2.49826 27.0483 2.51503V2.69106C26.924 3.37844 26.6087 4.11192 26.1025 4.89151C25.5962 5.67109 24.9524 6.51355 24.1708 7.41887C23.3893 8.3242 22.9008 8.91937 22.7054 9.20438C22.5456 9.40556 22.4657 9.58998 22.4657 9.75763C22.4657 9.89175 22.5367 10.0426 22.6788 10.2103L26.5687 14.8375C26.7819 15.1058 26.8884 15.3992 26.8884 15.7177C26.8884 16.1033 26.7286 16.4218 26.4089 16.6733C26.0891 16.9248 25.7072 17.0673 25.2632 17.1008L24.8103 17.126H20.7605C20.7427 17.126 20.7072 17.1302 20.6539 17.1385C20.6006 17.1469 20.5651 17.1511 20.5473 17.1511C20.1566 17.1511 19.7924 16.9919 19.455 16.6733C19.3306 16.5392 18.4958 15.55 16.9505 13.7059C16.8617 13.5885 16.7374 13.4795 16.5775 13.3789C16.5064 13.6472 16.4132 14.0328 16.2977 14.5357C16.1823 15.0387 16.0979 15.3992 16.0446 15.6171L15.9647 16.0446C15.7871 16.6314 15.4141 16.9835 14.8457 17.1008L14.4727 17.126H11.8616C10.3874 17.126 8.91756 16.4889 7.45218 15.2147C5.98681 13.9406 4.66797 12.2934 3.49566 10.2732C2.32336 8.25295 1.23099 5.90162 0.218543 3.21917C0.129733 3.00122 0.0853271 2.75813 0.0853271 2.48988ZM16.0979 9.00319C15.7249 9.00319 15.3874 8.90679 15.0855 8.71399C14.7835 8.52119 14.6325 8.25714 14.6325 7.92183V2.13781C14.6325 1.8025 14.5437 1.5636 14.3661 1.42109C14.1885 1.27859 13.8776 1.20734 13.4336 1.20734L11.9149 1.25763C11.1512 1.25763 10.5739 1.38337 10.1831 1.63485C10.9647 1.98692 11.3554 2.55694 11.3554 3.34491V7.77095C11.3199 8.19008 11.1423 8.53796 10.8226 8.81458C10.5028 9.09121 10.1476 9.22953 9.75682 9.22953C9.22396 9.22953 8.81543 8.98643 8.53124 8.50024C7.14579 6.52193 6.11558 4.64422 5.44062 2.8671L5.20083 2.21325L1.65728 2.18811C1.42637 2.18811 1.29759 2.20068 1.27095 2.22583C1.24431 2.25098 1.23099 2.32223 1.23099 2.43958C1.23099 2.59047 1.24875 2.74974 1.28427 2.9174L1.84378 4.32568C3.3358 7.96375 4.9566 10.8306 6.70617 12.9263C8.45575 15.0219 10.1742 16.0698 11.8616 16.0698H14.526C14.6325 16.0698 14.7125 16.0404 14.7658 15.9817C14.819 15.9231 14.8634 15.8099 14.899 15.6422L14.9523 15.3908L15.4585 13.1778C15.6006 12.876 15.7249 12.6748 15.8315 12.5742C16.0269 12.3898 16.2578 12.2976 16.5242 12.2976C16.9505 12.2976 17.3857 12.5407 17.8297 13.0269L20.0944 15.7428C20.2365 15.9608 20.3875 16.0698 20.5473 16.0698H24.9435C25.4763 16.0698 25.7428 15.944 25.7428 15.6925C25.7428 15.6087 25.7161 15.5249 25.6628 15.4411L21.7996 10.8893C21.4976 10.5372 21.3466 10.16 21.3466 9.75763C21.3466 9.35527 21.4887 8.96966 21.7729 8.60083C22.0038 8.26552 22.4523 7.70808 23.1184 6.92849C23.7845 6.1489 24.3662 5.41961 24.8635 4.74062C25.3609 4.06163 25.6895 3.4455 25.8493 2.89225L25.9293 2.56532C25.9115 2.53179 25.9026 2.47731 25.9026 2.40186C25.9026 2.32642 25.8937 2.26355 25.876 2.21325H21.693C21.4266 2.31384 21.2134 2.46473 21.0536 2.66592L20.8937 3.14373C20.4496 4.30053 19.2862 6.08603 17.4034 8.50024C17.0304 8.83554 16.5953 9.00319 16.0979 9.00319Z" fill="currentColor"/>
</g></symbol><symbol id="weight_back" viewBox="0 0 124 56"><g fill="none">
<path fill-rule="evenodd" clip-rule="evenodd" d="M3 1H121C122.105 1 123 1.89543 123 3V53C123 54.1046 122.105 55 121 55H105V56H121C122.657 56 124 54.6569 124 53V3C124 1.34315 122.657 0 121 0H3C1.34315 0 0 1.34314 0 3V53C0 54.6569 1.34314 56 3 56H18V55H3C1.89543 55 1 54.1046 1 53V3C1 1.89543 1.89543 1 3 1Z" fill="#CDCDCD"/>
</g></symbol><symbol id="weight_back_tablet" viewBox="0 0 162 72"><g fill="none">
<path fill-rule="evenodd" clip-rule="evenodd" d="M3 1H159C160.105 1 161 1.89543 161 3V69C161 70.1046 160.105 71 159 71H152V72H159C160.657 72 162 70.6569 162 69V3C162 1.34315 160.657 0 159 0H3C1.34315 0 0 1.34315 0 3V69C0 70.6569 1.34314 72 3 72H10V71H3C1.89543 71 1 70.1046 1 69V3C1 1.89543 1.89543 1 3 1Z" fill="#CDCDCD"/>
</g></symbol></svg>